<?xml version="1.0" encoding="UTF-8" standalone="no"?>
<!DOCTYPE svg PUBLIC "-//W3C//DTD SVG 1.1//EN"
 "http://www.w3.org/Graphics/SVG/1.1/DTD/svg11.dtd">
<!-- Generated by graphviz version 2.44.0 (0)
 -->
<!-- Title: G Pages: 1 -->
<svg width="615pt" height="925pt"
 viewBox="0.00 0.00 615.00 925.00" xmlns="http://www.w3.org/2000/svg" xmlns:xlink="http://www.w3.org/1999/xlink">
<g id="graph0" class="graph" transform="scale(1 1) rotate(0) translate(4 921)">
<title>G</title>
<polygon fill="white" stroke="transparent" points="-4,4 -4,-921 611,-921 611,4 -4,4"/>
<!-- 0x803631e4 -->
<g id="node1" class="node">
<title>0x803631e4</title>
<polygon fill="lightgrey" stroke="black" points="462.5,-917 198.5,-917 198.5,-789 462.5,-789 462.5,-917"/>
<text text-anchor="start" x="206.5" y="-901.8" font-family="monospace" font-size="14.00">[0x803631e4..0x80363200]</text>
<text text-anchor="start" x="206.5" y="-886.8" font-family="monospace" font-size="14.00">0x803631e4 &#160;mflr r0</text>
<text text-anchor="start" x="206.5" y="-871.8" font-family="monospace" font-size="14.00">0x803631e8 &#160;stw r0, 4(r1)</text>
<text text-anchor="start" x="206.5" y="-856.8" font-family="monospace" font-size="14.00">0x803631ec &#160;stwu r1, &#45;0x18(r1)</text>
<text text-anchor="start" x="206.5" y="-841.8" font-family="monospace" font-size="14.00">0x803631f0 &#160;stw r31, 0x14(r1)</text>
<text text-anchor="start" x="206.5" y="-826.8" font-family="monospace" font-size="14.00">0x803631f4 &#160;stw r30, 0x10(r1)</text>
<text text-anchor="start" x="206.5" y="-811.8" font-family="monospace" font-size="14.00">0x803631f8 &#160;mr. r30, r3</text>
<text text-anchor="start" x="206.5" y="-796.8" font-family="monospace" font-size="14.00">0x803631fc &#160;beq 0x80363268</text>
</g>
<!-- 0x80363200 -->
<g id="node2" class="node">
<title>0x80363200</title>
<polygon fill="lightgrey" stroke="black" points="374,-753 143,-753 143,-685 374,-685 374,-753"/>
<text text-anchor="start" x="151" y="-737.8" font-family="monospace" font-size="14.00">[0x80363200..0x8036320c]</text>
<text text-anchor="start" x="151" y="-722.8" font-family="monospace" font-size="14.00">0x80363200 &#160;lwz r3, (r30)</text>
<text text-anchor="start" x="151" y="-707.8" font-family="monospace" font-size="14.00">0x80363204 &#160;cmplwi r3, 0</text>
<text text-anchor="start" x="151" y="-692.8" font-family="monospace" font-size="14.00">0x80363208 &#160;beq 0x80363218</text>
</g>
<!-- 0x803631e4&#45;&gt;0x80363200 -->
<g id="edge1" class="edge">
<title>0x803631e4&#45;&gt;0x80363200</title>
<path fill="none" stroke="black" d="M295.98,-788.71C291.05,-779.67 286.08,-770.56 281.45,-762.07"/>
<polygon fill="black" stroke="black" points="284.43,-760.23 276.57,-753.12 278.28,-763.58 284.43,-760.23"/>
</g>
<!-- 0x80363268 -->
<g id="node3" class="node">
<title>0x80363268</title>
<polygon fill="lightgrey" stroke="black" points="607,-634 392,-634 392,-596 607,-596 607,-634"/>
<text text-anchor="start" x="400" y="-618.8" font-family="monospace" font-size="14.00">[0x80363268..0x8036326c]</text>
<text text-anchor="start" x="400" y="-603.8" font-family="monospace" font-size="14.00">0x80363268 &#160;li r3, 0</text>
</g>
<!-- 0x803631e4&#45;&gt;0x80363268 -->
<g id="edge2" class="edge">
<title>0x803631e4&#45;&gt;0x80363268</title>
<path fill="none" stroke="black" d="M375.79,-788.76C410.04,-740.93 455.34,-677.67 480.53,-642.49"/>
<polygon fill="black" stroke="black" points="483.5,-644.35 486.48,-634.18 477.81,-640.27 483.5,-644.35"/>
</g>
<!-- 0x8036320c -->
<g id="node4" class="node">
<title>0x8036320c</title>
<polygon fill="lightgrey" stroke="black" points="374,-649 143,-649 143,-581 374,-581 374,-649"/>
<text text-anchor="start" x="151" y="-633.8" font-family="monospace" font-size="14.00">[0x8036320c..0x80363218]</text>
<text text-anchor="start" x="151" y="-618.8" font-family="monospace" font-size="14.00">0x8036320c &#160;bl 0x80382814</text>
<text text-anchor="start" x="151" y="-603.8" font-family="monospace" font-size="14.00">0x80363210 &#160;cmplwi r3, 0</text>
<text text-anchor="start" x="151" y="-588.8" font-family="monospace" font-size="14.00">0x80363214 &#160;bne 0x80363224</text>
</g>
<!-- 0x80363200&#45;&gt;0x8036320c -->
<g id="edge3" class="edge">
<title>0x80363200&#45;&gt;0x8036320c</title>
<path fill="none" stroke="black" d="M258.5,-684.88C258.5,-676.78 258.5,-667.98 258.5,-659.47"/>
<polygon fill="black" stroke="black" points="262,-659.3 258.5,-649.3 255,-659.3 262,-659.3"/>
</g>
<!-- 0x80363218 -->
<g id="node5" class="node">
<title>0x80363218</title>
<polygon fill="lightgrey" stroke="black" points="223,-545 0,-545 0,-477 223,-477 223,-545"/>
<text text-anchor="start" x="8" y="-529.8" font-family="monospace" font-size="14.00">[0x80363218..0x80363224]</text>
<text text-anchor="start" x="8" y="-514.8" font-family="monospace" font-size="14.00">0x80363218 &#160;bl 0x80363ca4</text>
<text text-anchor="start" x="8" y="-499.8" font-family="monospace" font-size="14.00">0x8036321c &#160;mr r31, r3</text>
<text text-anchor="start" x="8" y="-484.8" font-family="monospace" font-size="14.00">0x80363220 &#160;b 0x80363240</text>
</g>
<!-- 0x80363200&#45;&gt;0x80363218 -->
<g id="edge4" class="edge">
<title>0x80363200&#45;&gt;0x80363218</title>
<path fill="none" stroke="black" d="M173.51,-684.93C158.14,-675.45 143.77,-663.6 133.5,-649 114.43,-621.88 109.51,-584.34 109.03,-555.41"/>
<polygon fill="black" stroke="black" points="112.53,-555.18 109.04,-545.17 105.53,-555.17 112.53,-555.18"/>
</g>
<!-- 0x8036326c -->
<g id="node9" class="node">
<title>0x8036326c</title>
<polygon fill="lightgrey" stroke="black" points="469.5,-113 213.5,-113 213.5,0 469.5,0 469.5,-113"/>
<text text-anchor="start" x="221.5" y="-97.8" font-family="monospace" font-size="14.00">[0x8036326c..0x80363284]</text>
<text text-anchor="start" x="221.5" y="-82.8" font-family="monospace" font-size="14.00">0x8036326c &#160;lwz r0, 0x1c(r1)</text>
<text text-anchor="start" x="221.5" y="-67.8" font-family="monospace" font-size="14.00">0x80363270 &#160;lwz r31, 0x14(r1)</text>
<text text-anchor="start" x="221.5" y="-52.8" font-family="monospace" font-size="14.00">0x80363274 &#160;lwz r30, 0x10(r1)</text>
<text text-anchor="start" x="221.5" y="-37.8" font-family="monospace" font-size="14.00">0x80363278 &#160;addi r1, r1, 0x18</text>
<text text-anchor="start" x="221.5" y="-22.8" font-family="monospace" font-size="14.00">0x8036327c &#160;mtlr r0</text>
<text text-anchor="start" x="221.5" y="-7.8" font-family="monospace" font-size="14.00">0x80363280 &#160;blr</text>
</g>
<!-- 0x80363268&#45;&gt;0x8036326c -->
<g id="edge12" class="edge">
<title>0x80363268&#45;&gt;0x8036326c</title>
<path fill="none" stroke="black" d="M501.89,-595.97C506.92,-553.67 516.51,-445.07 495.5,-358 474.4,-270.55 423.26,-179.97 385.68,-121.43"/>
<polygon fill="black" stroke="black" points="388.61,-119.52 380.24,-113.03 382.74,-123.32 388.61,-119.52"/>
</g>
<!-- 0x8036320c&#45;&gt;0x80363218 -->
<g id="edge5" class="edge">
<title>0x8036320c&#45;&gt;0x80363218</title>
<path fill="none" stroke="black" d="M210.77,-580.88C196.97,-571.3 181.77,-560.76 167.51,-550.86"/>
<polygon fill="black" stroke="black" points="169.45,-547.95 159.24,-545.12 165.46,-553.7 169.45,-547.95"/>
</g>
<!-- 0x80363224 -->
<g id="node6" class="node">
<title>0x80363224</title>
<polygon fill="lightgrey" stroke="black" points="472,-545 241,-545 241,-477 472,-477 472,-545"/>
<text text-anchor="start" x="249" y="-529.8" font-family="monospace" font-size="14.00">[0x80363224..0x80363230]</text>
<text text-anchor="start" x="249" y="-514.8" font-family="monospace" font-size="14.00">0x80363224 &#160;bl 0x80382344</text>
<text text-anchor="start" x="249" y="-499.8" font-family="monospace" font-size="14.00">0x80363228 &#160;mr. r31, r3</text>
<text text-anchor="start" x="249" y="-484.8" font-family="monospace" font-size="14.00">0x8036322c &#160;bne 0x80363240</text>
</g>
<!-- 0x8036320c&#45;&gt;0x80363224 -->
<g id="edge6" class="edge">
<title>0x8036320c&#45;&gt;0x80363224</title>
<path fill="none" stroke="black" d="M290.32,-580.88C298.96,-571.89 308.42,-562.04 317.42,-552.68"/>
<polygon fill="black" stroke="black" points="320.1,-554.94 324.51,-545.3 315.05,-550.09 320.1,-554.94"/>
</g>
<!-- 0x80363240 -->
<g id="node7" class="node">
<title>0x80363240</title>
<polygon fill="lightgrey" stroke="black" points="383.5,-322 127.5,-322 127.5,-149 383.5,-149 383.5,-322"/>
<text text-anchor="start" x="135.5" y="-306.8" font-family="monospace" font-size="14.00">[0x80363240..0x80363268]</text>
<text text-anchor="start" x="135.5" y="-291.8" font-family="monospace" font-size="14.00">0x80363240 &#160;lwz r5, (r31)</text>
<text text-anchor="start" x="135.5" y="-276.8" font-family="monospace" font-size="14.00">0x80363244 &#160;addi r3, r31, 0</text>
<text text-anchor="start" x="135.5" y="-261.8" font-family="monospace" font-size="14.00">0x80363248 &#160;addi r4, r30, 0</text>
<text text-anchor="start" x="135.5" y="-246.8" font-family="monospace" font-size="14.00">0x8036324c &#160;lwz r12, 0x40(r5)</text>
<text text-anchor="start" x="135.5" y="-231.8" font-family="monospace" font-size="14.00">0x80363250 &#160;mtlr r12</text>
<text text-anchor="start" x="135.5" y="-216.8" font-family="monospace" font-size="14.00">0x80363254 &#160;blrl</text>
<text text-anchor="start" x="135.5" y="-201.8" font-family="monospace" font-size="14.00">0x80363258 &#160;mr r3, r31</text>
<text text-anchor="start" x="135.5" y="-186.8" font-family="monospace" font-size="14.00">0x8036325c &#160;bl 0x8036388c</text>
<text text-anchor="start" x="135.5" y="-171.8" font-family="monospace" font-size="14.00">0x80363260 &#160;mr r3, r31</text>
<text text-anchor="start" x="135.5" y="-156.8" font-family="monospace" font-size="14.00">0x80363264 &#160;b 0x8036326c</text>
</g>
<!-- 0x80363218&#45;&gt;0x80363240 -->
<g id="edge7" class="edge">
<title>0x80363218&#45;&gt;0x80363240</title>
<path fill="none" stroke="black" d="M121.76,-476.98C132.12,-445.49 149.57,-397.21 170.5,-358 175.32,-348.96 180.7,-339.8 186.34,-330.77"/>
<polygon fill="black" stroke="black" points="189.41,-332.48 191.82,-322.16 183.5,-328.72 189.41,-332.48"/>
</g>
<!-- 0x80363224&#45;&gt;0x80363240 -->
<g id="edge9" class="edge">
<title>0x80363224&#45;&gt;0x80363240</title>
<path fill="none" stroke="black" d="M249.1,-476.93C220.8,-465.95 195.81,-453.36 187.5,-441 165.43,-408.15 173.21,-367.53 189.94,-331.17"/>
<polygon fill="black" stroke="black" points="193.16,-332.55 194.37,-322.02 186.86,-329.49 193.16,-332.55"/>
</g>
<!-- 0x80363230 -->
<g id="node8" class="node">
<title>0x80363230</title>
<polygon fill="lightgrey" stroke="black" points="486,-441 197,-441 197,-358 486,-358 486,-441"/>
<text text-anchor="start" x="205" y="-425.8" font-family="monospace" font-size="14.00">[0x80363230..0x80363240]</text>
<text text-anchor="start" x="205" y="-410.8" font-family="monospace" font-size="14.00">0x80363230 &#160;addi r3, r13, &#45;0x59c0</text>
<text text-anchor="start" x="205" y="-395.8" font-family="monospace" font-size="14.00">0x80363234 &#160;li r4, 0x161</text>
<text text-anchor="start" x="205" y="-380.8" font-family="monospace" font-size="14.00">0x80363238 &#160;addi r5, r13, &#45;0x59b8</text>
<text text-anchor="start" x="205" y="-365.8" font-family="monospace" font-size="14.00">0x8036323c &#160;bl 0x80388220</text>
</g>
<!-- 0x80363224&#45;&gt;0x80363230 -->
<g id="edge8" class="edge">
<title>0x80363224&#45;&gt;0x80363230</title>
<path fill="none" stroke="black" d="M351.96,-476.85C350.86,-468.8 349.65,-460 348.46,-451.34"/>
<polygon fill="black" stroke="black" points="351.91,-450.71 347.09,-441.28 344.98,-451.66 351.91,-450.71"/>
</g>
<!-- 0x80363240&#45;&gt;0x8036326c -->
<g id="edge11" class="edge">
<title>0x80363240&#45;&gt;0x8036326c</title>
<path fill="none" stroke="black" d="M297.11,-148.85C301.46,-139.91 305.82,-130.93 310.03,-122.27"/>
<polygon fill="black" stroke="black" points="313.3,-123.55 314.52,-113.03 307,-120.49 313.3,-123.55"/>
</g>
<!-- 0x80363230&#45;&gt;0x80363240 -->
<g id="edge10" class="edge">
<title>0x80363230&#45;&gt;0x80363240</title>
<path fill="none" stroke="black" d="M319.8,-357.62C315.42,-349.38 310.66,-340.4 305.76,-331.18"/>
<polygon fill="black" stroke="black" points="308.81,-329.46 301.03,-322.27 302.63,-332.75 308.81,-329.46"/>
</g>
</g>
</svg>
